<svg id="Layer_1" data-name="Layer 1" xmlns="http://www.w3.org/2000/svg" viewBox="0 0 1920 477.8"><defs><style>.cls-1{fill:#fff;}</style></defs><path class="cls-1" d="M634.82,183.16h93.23L746,226.29h48.89L704.58,25h-46L569.15,226.29h47.73ZM681.43,71.07l31.91,76.73H649.52Z"/><path class="cls-1" d="M903.7,110.13a50.45,50.45,0,0,1,5,.86V69.3q-21.86,0-37.09,8.48a49.2,49.2,0,0,0-16.1,14.4V71.6H812.69V226.29h44.86v-73q0-22.14,11.21-32.78T899,109.84A41.11,41.11,0,0,1,903.7,110.13Z"/><path class="cls-1" d="M964.37,218.39q19.41,10.22,44.43,10.21,24.43,0,42.7-10.35t26.31-28.76l-34.51-19q-6.32,11.21-15.23,16.24a39.09,39.09,0,0,1-19.56,5,41.74,41.74,0,0,1-20.41-5,37.09,37.09,0,0,1-14.67-14.67Q968,162.46,968,149t5.46-23a37.49,37.49,0,0,1,14.67-14.52,41.85,41.85,0,0,1,20.41-5,39.19,39.19,0,0,1,19.56,5q8.9,5,15.23,16l34.51-19a59.26,59.26,0,0,0-26.31-28.9q-18.27-10.22-42.7-10.21-25,0-44.43,10.35a78.75,78.75,0,0,0-30.48,28.18Q922.84,125.67,922.82,149q0,23,11.07,41.12A76.9,76.9,0,0,0,964.37,218.39Z"/><path class="cls-1" d="M1111.73,173.1q0,27.6,15.24,41.55t42.55,13.95a81,81,0,0,0,20-2.45,46,46,0,0,0,16.25-7.33L1194,187.19q-7.47,5.76-18.39,5.75-8.62,0-13.66-5.47t-5-15.23V109.55h38.24V75.05h-38.24V37.38h-45.15V75.05h-23.87v34.5h23.87Z"/><rect class="cls-1" x="1231.35" y="71.6" width="44.86" height="154.7"/><path class="cls-1" d="M1253.77,50q12.64,0,20.42-7.33A24.44,24.44,0,0,0,1282,24.15a21.83,21.83,0,0,0-7.9-17.39Q1266.13,0,1253.77,0q-12.66,0-20.41,7.19A23.32,23.32,0,0,0,1225.6,25a23.32,23.32,0,0,0,7.76,17.83Q1241.13,50,1253.77,50Z"/><path class="cls-1" d="M1372,111.42a41.85,41.85,0,0,1,20.41-5,39.13,39.13,0,0,1,19.55,5q8.91,5,15.24,16l34.51-19a59.26,59.26,0,0,0-26.31-28.9q-18.27-10.22-42.71-10.21-25,0-44.42,10.35a78.68,78.68,0,0,0-30.48,28.18q-11.07,17.83-11.07,41.12,0,23,11.07,41.12a76.83,76.83,0,0,0,30.48,28.32q19.41,10.22,44.42,10.21,24.45,0,42.71-10.35t26.31-28.76l-34.51-19q-6.33,11.21-15.24,16.24a39,39,0,0,1-19.55,5,41.74,41.74,0,0,1-20.41-5,37,37,0,0,1-14.67-14.67q-5.46-9.63-5.46-23.14t5.46-23A37.42,37.42,0,0,1,1372,111.42Z"/><polygon class="cls-1" points="572.89 312.17 637.3 312.17 637.3 475.49 683.88 475.49 683.88 312.17 748.28 312.17 748.28 274.22 572.89 274.22 572.89 312.17"/><path class="cls-1" d="M809.53,341.38V320.8H766.69V475.49h44.86v-73q0-22.14,11.21-32.78T853,359a43.59,43.59,0,0,1,4.75.28c1.62.2,3.3.48,5,.87V318.5q-21.87,0-37.1,8.47A49.43,49.43,0,0,0,809.53,341.38Z"/><path class="cls-1" d="M941.8,318.5a140.37,140.37,0,0,0-36.23,4.74q-17.82,4.74-30.48,13.95l15.82,31.34A67.87,67.87,0,0,1,911.46,358a78.08,78.08,0,0,1,24.3-3.89q18.12,0,26.88,8.05t8.78,22.43v.29H936.05q-23.87,0-38.53,5.75T876.1,406.92a43.34,43.34,0,0,0-6.76,24,42.28,42.28,0,0,0,7,23.87q7,10.63,20,16.81t30.77,6.19q20.4,0,33.35-7.91A40.68,40.68,0,0,0,974.29,456v19.47h42V387.22q0-35.37-19.55-52.05T941.8,318.5Zm16.82,123.93a40.7,40.7,0,0,1-20.56,5.17q-11.5,0-18.25-5a16.12,16.12,0,0,1-6.76-13.66A16.51,16.51,0,0,1,918.94,416q5.89-5.18,21.71-5.18h30.77v15.82A28.31,28.31,0,0,1,958.62,442.43Z"/><polygon class="cls-1" points="1120.03 426.19 1077.23 320.8 1031.23 320.8 1096.21 475.49 1142.22 475.49 1207.49 320.8 1164.64 320.8 1120.03 426.19"/><path class="cls-1" d="M1333.57,328.27q-18.27-9.78-41-9.77-23.58,0-42.41,10.2A73.73,73.73,0,0,0,1220.86,357q-10.5,18.11-10.5,41.11t10.93,41q10.92,18,30.77,28.32t46.29,10.36q21,0,37.09-6.47a69.47,69.47,0,0,0,26.74-18.56l-23.86-25.87a52.79,52.79,0,0,1-17.11,11.21,57.37,57.37,0,0,1-21.42,3.74q-14.1,0-24.15-5a37.84,37.84,0,0,1-15.82-14.53,38.36,38.36,0,0,1-4.53-11.5h117c.19-1.91.38-4,.57-6.18s.29-4.16.29-5.89q0-25-10.64-42.85A73.54,73.54,0,0,0,1333.57,328.27Zm-61,29.19a40.09,40.09,0,0,1,20.28-5,39.26,39.26,0,0,1,20.12,5,35.75,35.75,0,0,1,13.52,13.94,38.11,38.11,0,0,1,3.9,13.23H1255a40.65,40.65,0,0,1,4-13.08A35.07,35.07,0,0,1,1272.61,357.46Z"/><rect class="cls-1" x="1403.01" y="262.14" width="44.86" height="213.35"/><path class="cls-1" d="M1601.56,328.27q-18.27-9.78-41-9.77-23.58,0-42.41,10.2A73.79,73.79,0,0,0,1488.84,357q-10.5,18.11-10.5,41.11t10.93,41q10.92,18,30.77,28.32t46.29,10.36q21,0,37.09-6.47a69.47,69.47,0,0,0,26.74-18.56L1606.3,426.9a52.79,52.79,0,0,1-17.11,11.21,57.37,57.37,0,0,1-21.42,3.74q-14.1,0-24.15-5a37.84,37.84,0,0,1-15.82-14.53,38.36,38.36,0,0,1-4.53-11.5h117c.19-1.91.38-4,.57-6.18s.29-4.16.29-5.89q0-25-10.64-42.85A73.58,73.58,0,0,0,1601.56,328.27Zm-61,29.19a40.09,40.09,0,0,1,20.28-5,39.26,39.26,0,0,1,20.12,5,35.75,35.75,0,0,1,13.52,13.94,38.33,38.33,0,0,1,3.91,13.23h-75.49a40.65,40.65,0,0,1,4-13.08A35.07,35.07,0,0,1,1540.59,357.46Z"/><path class="cls-1" d="M1713.84,341.38V320.8H1671V475.49h44.85v-73q0-22.14,11.22-32.78T1757.26,359a43.26,43.26,0,0,1,4.74.28,50.55,50.55,0,0,1,5,.87V318.5q-21.85,0-37.09,8.47A49.43,49.43,0,0,0,1713.84,341.38Z"/><path class="cls-1" d="M1915,407.34a36.23,36.23,0,0,0-13.51-13.08,78.35,78.35,0,0,0-18.26-7.32,170.62,170.62,0,0,0-19.85-4q-10.06-1.44-18.4-2.88a40.45,40.45,0,0,1-13.51-4.46,9.59,9.59,0,0,1-5.17-8.77q0-6.32,6.89-10.34t22.43-4a97.51,97.51,0,0,1,21.71,2.6,79.44,79.44,0,0,1,22.28,8.91L1914.82,332q-11.21-6.34-27.46-9.93A149.7,149.7,0,0,0,1855,318.5q-22.43,0-38.25,6.32t-24.43,17.69a41.86,41.86,0,0,0-8.63,26q0,13.23,5,21.56a35.93,35.93,0,0,0,13.51,13.08,78.06,78.06,0,0,0,18.41,7.34,181.22,181.22,0,0,0,20,4q10.06,1.43,18.26,2.87a43.63,43.63,0,0,1,13.22,4.17,8.78,8.78,0,0,1,5,8.19c0,4.42-2.15,7.86-6.47,10.35s-11.64,3.75-22,3.75a102.92,102.92,0,0,1-28.61-4.18,112.39,112.39,0,0,1-25.45-10.49L1780,461.11q10.92,7.2,29,11.94a149.37,149.37,0,0,0,38,4.75q23.3,0,39.54-6.33t24.88-17.4a39.81,39.81,0,0,0,8.62-25.16Q1920,415.68,1915,407.34Z"/><polygon class="cls-1" points="136.02 318.4 276.6 477.8 217.43 325.96 292.37 240.98 496.67 472.64 496.67 20.91 0 20.91 0 472.64 136.02 318.4"/></svg>